<svg width="21" height="21" viewBox="0 0 21 21" fill="none" xmlns="http://www.w3.org/2000/svg">
<path d="M15.0789 14.4659L11.5776 18.0489C11.4244 18.2057 11.2426 18.3302 11.0424 18.415C10.8423 18.4999 10.6278 18.5436 10.4111 18.5436C10.1944 18.5436 9.97991 18.4999 9.77977 18.415C9.57962 18.3302 9.39779 18.2057 9.24466 18.0489L5.74245 14.4659C4.81921 13.5211 4.19049 12.3174 3.93579 11.0069C3.68109 9.69649 3.81184 8.3382 4.31152 7.1038C4.8112 5.8694 5.65736 4.81435 6.743 4.07206C7.82865 3.32976 9.10501 2.93356 10.4107 2.93356C11.7164 2.93356 12.9927 3.32976 14.0784 4.07206C15.164 4.81435 16.0102 5.8694 16.5099 7.1038C17.0095 8.3382 17.1403 9.69649 16.8856 11.0069C16.6309 12.3174 16.0022 13.5211 15.0789 14.4659V14.4659Z" stroke="#3F3F46" stroke-width="2" stroke-linecap="round" stroke-linejoin="round"/>
<path d="M12.1613 11.4802C12.6255 11.0051 12.8864 10.3608 12.8864 9.68888C12.8864 9.017 12.6255 8.37264 12.1613 7.89754C11.697 7.42245 11.0673 7.15555 10.4107 7.15555C9.75412 7.15555 9.12443 7.42245 8.66016 7.89754C8.19588 8.37264 7.93506 9.017 7.93506 9.68888C7.93506 10.3608 8.19588 11.0051 8.66016 11.4802C9.12443 11.9553 9.75412 12.2222 10.4107 12.2222C11.0673 12.2222 11.697 11.9553 12.1613 11.4802Z" stroke="#3F3F46" stroke-width="2" stroke-linecap="round" stroke-linejoin="round"/>
</svg>
